<svg xmlns="http://www.w3.org/2000/svg" xmlns:xlink="http://www.w3.org/1999/xlink" width="600" zoomAndPan="magnify" viewBox="0 0 450 149.999998" height="200" preserveAspectRatio="xMidYMid meet" version="1.0"><defs><g/><clipPath id="0a90f9a985"><rect x="0" width="177" y="0" height="79"/></clipPath></defs><path stroke-linecap="butt" transform="matrix(0, 0.75, -0.75, 0, 202.874992, 37.5)" fill="none" stroke-linejoin="miter" d="M 0.00000025 0.499989 L 100.000006 0.499989 " stroke="#cccccc" stroke-width="1" stroke-opacity="1" stroke-miterlimit="4"/><g fill="#444444" fill-opacity="1"><g transform="translate(217.499991, 64.699993)"><g><path d="M 2.25 -4.59375 L 2.25 0 L 1.078125 0 L 1.078125 -10.1875 L 2.25 -10.1875 L 2.25 -6.4375 L 2.34375 -6.4375 C 2.519531 -6.832031 2.785156 -7.144531 3.140625 -7.375 C 3.503906 -7.613281 3.988281 -7.734375 4.59375 -7.734375 C 5.375 -7.734375 6.003906 -7.5 6.484375 -7.03125 C 6.960938 -6.5625 7.203125 -5.835938 7.203125 -4.859375 L 7.203125 0 L 6.03125 0 L 6.03125 -4.765625 C 6.03125 -5.378906 5.867188 -5.851562 5.546875 -6.1875 C 5.234375 -6.519531 4.800781 -6.6875 4.25 -6.6875 C 3.675781 -6.6875 3.195312 -6.503906 2.8125 -6.140625 C 2.4375 -5.773438 2.25 -5.257812 2.25 -4.59375 Z M 2.25 -4.59375 "/></g></g></g><g fill="#444444" fill-opacity="1"><g transform="translate(225.76821, 64.699993)"><g><path d="M 4.28125 0.15625 C 3.539062 0.15625 2.90625 -0.00390625 2.375 -0.328125 C 1.84375 -0.648438 1.429688 -1.101562 1.140625 -1.6875 C 0.859375 -2.28125 0.71875 -2.972656 0.71875 -3.765625 C 0.71875 -4.546875 0.859375 -5.234375 1.140625 -5.828125 C 1.429688 -6.421875 1.832031 -6.882812 2.34375 -7.21875 C 2.863281 -7.5625 3.46875 -7.734375 4.15625 -7.734375 C 4.550781 -7.734375 4.941406 -7.664062 5.328125 -7.53125 C 5.722656 -7.40625 6.078125 -7.191406 6.390625 -6.890625 C 6.710938 -6.597656 6.96875 -6.207031 7.15625 -5.71875 C 7.34375 -5.226562 7.4375 -4.628906 7.4375 -3.921875 L 7.4375 -3.421875 L 1.890625 -3.421875 C 1.921875 -2.609375 2.148438 -1.984375 2.578125 -1.546875 C 3.015625 -1.109375 3.582031 -0.890625 4.28125 -0.890625 C 4.738281 -0.890625 5.128906 -0.988281 5.453125 -1.1875 C 5.785156 -1.382812 6.03125 -1.6875 6.1875 -2.09375 L 7.3125 -1.765625 C 7.132812 -1.191406 6.773438 -0.726562 6.234375 -0.375 C 5.703125 -0.0195312 5.050781 0.15625 4.28125 0.15625 Z M 1.890625 -4.4375 L 6.25 -4.4375 C 6.25 -5.082031 6.054688 -5.617188 5.671875 -6.046875 C 5.296875 -6.472656 4.789062 -6.6875 4.15625 -6.6875 C 3.707031 -6.6875 3.316406 -6.582031 2.984375 -6.375 C 2.660156 -6.164062 2.40625 -5.890625 2.21875 -5.546875 C 2.03125 -5.203125 1.921875 -4.832031 1.890625 -4.4375 Z M 1.890625 -4.4375 "/></g></g></g><g fill="#444444" fill-opacity="1"><g transform="translate(233.917181, 64.699993)"><g><path d="M 2.25 -10.1875 L 2.25 0 L 1.078125 0 L 1.078125 -10.1875 Z M 2.25 -10.1875 "/></g></g></g><g fill="#444444" fill-opacity="1"><g transform="translate(237.236391, 64.699993)"><g><path d="M 2.25 -10.1875 L 2.25 0 L 1.078125 0 L 1.078125 -10.1875 Z M 2.25 -10.1875 "/></g></g></g><g fill="#444444" fill-opacity="1"><g transform="translate(240.5556, 64.699993)"><g><path d="M 4.171875 0.15625 C 3.484375 0.15625 2.878906 -0.00390625 2.359375 -0.328125 C 1.835938 -0.660156 1.429688 -1.117188 1.140625 -1.703125 C 0.859375 -2.296875 0.71875 -2.988281 0.71875 -3.78125 C 0.71875 -4.570312 0.859375 -5.265625 1.140625 -5.859375 C 1.429688 -6.453125 1.835938 -6.910156 2.359375 -7.234375 C 2.878906 -7.566406 3.484375 -7.734375 4.171875 -7.734375 C 4.859375 -7.734375 5.460938 -7.566406 5.984375 -7.234375 C 6.503906 -6.910156 6.910156 -6.453125 7.203125 -5.859375 C 7.492188 -5.265625 7.640625 -4.570312 7.640625 -3.78125 C 7.640625 -2.988281 7.492188 -2.296875 7.203125 -1.703125 C 6.910156 -1.117188 6.503906 -0.660156 5.984375 -0.328125 C 5.460938 -0.00390625 4.859375 0.15625 4.171875 0.15625 Z M 4.171875 -0.890625 C 4.703125 -0.890625 5.132812 -1.023438 5.46875 -1.296875 C 5.800781 -1.566406 6.050781 -1.921875 6.21875 -2.359375 C 6.382812 -2.796875 6.46875 -3.269531 6.46875 -3.78125 C 6.46875 -4.289062 6.382812 -4.765625 6.21875 -5.203125 C 6.050781 -5.640625 5.800781 -5.992188 5.46875 -6.265625 C 5.132812 -6.546875 4.703125 -6.6875 4.171875 -6.6875 C 3.648438 -6.6875 3.21875 -6.546875 2.875 -6.265625 C 2.539062 -5.992188 2.289062 -5.640625 2.125 -5.203125 C 1.96875 -4.765625 1.890625 -4.289062 1.890625 -3.78125 C 1.890625 -3.269531 1.96875 -2.796875 2.125 -2.359375 C 2.289062 -1.921875 2.539062 -1.566406 2.875 -1.296875 C 3.21875 -1.023438 3.648438 -0.890625 4.171875 -0.890625 Z M 4.171875 -0.890625 "/></g></g></g><g fill="#444444" fill-opacity="1"><g transform="translate(248.903321, 64.699993)"><g><path d="M 6.796875 -9.796875 C 7.734375 -9.796875 8.550781 -9.644531 9.25 -9.34375 C 9.945312 -9.039062 10.53125 -8.628906 11 -8.109375 C 11.476562 -7.597656 11.832031 -7.019531 12.0625 -6.375 C 12.300781 -5.738281 12.421875 -5.078125 12.421875 -4.390625 C 12.421875 -3.910156 12.398438 -3.421875 12.359375 -2.921875 C 12.316406 -2.429688 12.21875 -1.976562 12.0625 -1.5625 C 11.914062 -1.15625 11.6875 -0.828125 11.375 -0.578125 C 11.0625 -0.328125 10.644531 -0.203125 10.125 -0.203125 C 9.894531 -0.203125 9.640625 -0.238281 9.359375 -0.3125 C 9.078125 -0.382812 8.828125 -0.503906 8.609375 -0.671875 C 8.398438 -0.835938 8.273438 -1.066406 8.234375 -1.359375 L 8.171875 -1.359375 C 8.054688 -1.066406 7.835938 -0.804688 7.515625 -0.578125 C 7.203125 -0.347656 6.765625 -0.242188 6.203125 -0.265625 C 5.628906 -0.273438 5.144531 -0.429688 4.75 -0.734375 C 4.363281 -1.046875 4.070312 -1.453125 3.875 -1.953125 C 3.675781 -2.460938 3.578125 -3.03125 3.578125 -3.65625 C 3.578125 -4.25 3.691406 -4.773438 3.921875 -5.234375 C 4.148438 -5.703125 4.460938 -6.070312 4.859375 -6.34375 C 5.253906 -6.625 5.703125 -6.789062 6.203125 -6.84375 C 6.703125 -6.894531 7.128906 -6.84375 7.484375 -6.6875 C 7.835938 -6.53125 8.046875 -6.34375 8.109375 -6.125 L 8.171875 -6.125 L 8.171875 -6.6875 L 9.234375 -6.6875 L 9.234375 -2.1875 C 9.234375 -1.90625 9.304688 -1.660156 9.453125 -1.453125 C 9.609375 -1.242188 9.835938 -1.140625 10.140625 -1.140625 C 10.648438 -1.140625 10.984375 -1.398438 11.140625 -1.921875 C 11.304688 -2.453125 11.390625 -3.285156 11.390625 -4.421875 C 11.390625 -4.972656 11.296875 -5.515625 11.109375 -6.046875 C 10.921875 -6.578125 10.632812 -7.050781 10.25 -7.46875 C 9.863281 -7.894531 9.378906 -8.234375 8.796875 -8.484375 C 8.210938 -8.742188 7.523438 -8.875 6.734375 -8.875 C 5.703125 -8.875 4.8125 -8.660156 4.0625 -8.234375 C 3.320312 -7.804688 2.753906 -7.195312 2.359375 -6.40625 C 1.960938 -5.613281 1.765625 -4.664062 1.765625 -3.5625 C 1.765625 -1.875 2.207031 -0.570312 3.09375 0.34375 C 3.976562 1.269531 5.273438 1.734375 6.984375 1.734375 C 7.347656 1.734375 7.707031 1.695312 8.0625 1.625 C 8.414062 1.550781 8.726562 1.472656 9 1.390625 C 9.269531 1.304688 9.460938 1.25 9.578125 1.21875 L 9.859375 2.125 C 9.660156 2.207031 9.394531 2.289062 9.0625 2.375 C 8.726562 2.46875 8.375 2.539062 8 2.59375 C 7.632812 2.65625 7.28125 2.6875 6.9375 2.6875 C 4.90625 2.6875 3.351562 2.140625 2.28125 1.046875 C 1.207031 -0.046875 0.671875 -1.59375 0.671875 -3.59375 C 0.671875 -4.882812 0.914062 -5.992188 1.40625 -6.921875 C 1.894531 -7.847656 2.59375 -8.554688 3.5 -9.046875 C 4.414062 -9.546875 5.515625 -9.796875 6.796875 -9.796875 Z M 6.40625 -5.859375 C 6.03125 -5.859375 5.707031 -5.757812 5.4375 -5.5625 C 5.164062 -5.375 4.957031 -5.113281 4.8125 -4.78125 C 4.675781 -4.457031 4.609375 -4.101562 4.609375 -3.71875 C 4.609375 -3.289062 4.664062 -2.890625 4.78125 -2.515625 C 4.894531 -2.148438 5.078125 -1.847656 5.328125 -1.609375 C 5.585938 -1.378906 5.929688 -1.265625 6.359375 -1.265625 C 7.023438 -1.265625 7.503906 -1.46875 7.796875 -1.875 C 8.085938 -2.28125 8.234375 -2.894531 8.234375 -3.71875 C 8.234375 -4.550781 8.078125 -5.113281 7.765625 -5.40625 C 7.453125 -5.707031 7 -5.859375 6.40625 -5.859375 Z M 6.40625 -5.859375 "/></g></g></g><g fill="#444444" fill-opacity="1"><g transform="translate(262.001289, 64.699993)"><g><path d="M 2.796875 0 L 0.484375 -7.640625 L 1.703125 -7.640625 L 3.359375 -1.796875 L 3.4375 -1.796875 L 5.078125 -7.640625 L 6.328125 -7.640625 L 7.9375 -1.8125 L 8.015625 -1.8125 L 9.671875 -7.640625 L 10.890625 -7.640625 L 8.578125 0 L 7.421875 0 L 5.75 -5.859375 L 5.625 -5.859375 L 3.953125 0 Z M 2.796875 0 "/></g></g></g><g fill="#444444" fill-opacity="1"><g transform="translate(273.37009, 64.699993)"><g><path d="M 3.328125 0.171875 C 2.835938 0.171875 2.394531 0.0820312 2 -0.09375 C 1.601562 -0.28125 1.289062 -0.546875 1.0625 -0.890625 C 0.832031 -1.242188 0.71875 -1.671875 0.71875 -2.171875 C 0.71875 -2.609375 0.800781 -2.960938 0.96875 -3.234375 C 1.144531 -3.503906 1.375 -3.71875 1.65625 -3.875 C 1.945312 -4.03125 2.265625 -4.144531 2.609375 -4.21875 C 2.960938 -4.300781 3.316406 -4.367188 3.671875 -4.421875 C 4.140625 -4.472656 4.519531 -4.515625 4.8125 -4.546875 C 5.101562 -4.578125 5.3125 -4.628906 5.4375 -4.703125 C 5.570312 -4.785156 5.640625 -4.921875 5.640625 -5.109375 L 5.640625 -5.15625 C 5.640625 -5.644531 5.503906 -6.023438 5.234375 -6.296875 C 4.972656 -6.566406 4.570312 -6.703125 4.03125 -6.703125 C 3.476562 -6.703125 3.039062 -6.578125 2.71875 -6.328125 C 2.394531 -6.085938 2.171875 -5.828125 2.046875 -5.546875 L 0.9375 -5.953125 C 1.132812 -6.410156 1.398438 -6.769531 1.734375 -7.03125 C 2.066406 -7.289062 2.429688 -7.472656 2.828125 -7.578125 C 3.222656 -7.679688 3.613281 -7.734375 4 -7.734375 C 4.238281 -7.734375 4.519531 -7.703125 4.84375 -7.640625 C 5.164062 -7.585938 5.472656 -7.472656 5.765625 -7.296875 C 6.066406 -7.117188 6.316406 -6.847656 6.515625 -6.484375 C 6.722656 -6.117188 6.828125 -5.632812 6.828125 -5.03125 L 6.828125 0 L 5.640625 0 L 5.640625 -1.03125 L 5.59375 -1.03125 C 5.507812 -0.863281 5.375 -0.6875 5.1875 -0.5 C 5 -0.3125 4.75 -0.148438 4.4375 -0.015625 C 4.132812 0.109375 3.765625 0.171875 3.328125 0.171875 Z M 3.5 -0.875 C 3.96875 -0.875 4.359375 -0.960938 4.671875 -1.140625 C 4.992188 -1.328125 5.234375 -1.5625 5.390625 -1.84375 C 5.554688 -2.132812 5.640625 -2.441406 5.640625 -2.765625 L 5.640625 -3.84375 C 5.597656 -3.78125 5.492188 -3.722656 5.328125 -3.671875 C 5.160156 -3.628906 4.96875 -3.585938 4.75 -3.546875 C 4.53125 -3.515625 4.316406 -3.484375 4.109375 -3.453125 C 3.910156 -3.429688 3.75 -3.414062 3.625 -3.40625 C 3.3125 -3.363281 3.023438 -3.296875 2.765625 -3.203125 C 2.503906 -3.117188 2.289062 -2.988281 2.125 -2.8125 C 1.96875 -2.644531 1.890625 -2.410156 1.890625 -2.109375 C 1.890625 -1.703125 2.039062 -1.394531 2.34375 -1.1875 C 2.644531 -0.976562 3.03125 -0.875 3.5 -0.875 Z M 3.5 -0.875 "/></g></g></g><g fill="#444444" fill-opacity="1"><g transform="translate(281.260676, 64.699993)"><g><path d="M 1.078125 0 L 1.078125 -7.640625 L 2.203125 -7.640625 L 2.203125 -6.484375 L 2.28125 -6.484375 C 2.414062 -6.859375 2.664062 -7.160156 3.03125 -7.390625 C 3.394531 -7.628906 3.8125 -7.75 4.28125 -7.75 C 4.488281 -7.75 4.671875 -7.722656 4.828125 -7.671875 C 4.992188 -7.628906 5.132812 -7.566406 5.25 -7.484375 L 4.859375 -6.484375 C 4.773438 -6.523438 4.675781 -6.554688 4.5625 -6.578125 C 4.445312 -6.609375 4.316406 -6.625 4.171875 -6.625 C 3.617188 -6.625 3.160156 -6.453125 2.796875 -6.109375 C 2.429688 -5.773438 2.25 -5.347656 2.25 -4.828125 L 2.25 0 Z M 1.078125 0 "/></g></g></g><g fill="#444444" fill-opacity="1"><g transform="translate(286.627074, 64.699993)"><g><path d="M 3.953125 0.15625 C 3.316406 0.15625 2.753906 -0.00390625 2.265625 -0.328125 C 1.785156 -0.648438 1.40625 -1.101562 1.125 -1.6875 C 0.851562 -2.28125 0.71875 -2.984375 0.71875 -3.796875 C 0.71875 -4.597656 0.851562 -5.289062 1.125 -5.875 C 1.40625 -6.46875 1.789062 -6.925781 2.28125 -7.25 C 2.769531 -7.570312 3.335938 -7.734375 3.984375 -7.734375 C 4.472656 -7.734375 4.863281 -7.648438 5.15625 -7.484375 C 5.445312 -7.328125 5.671875 -7.144531 5.828125 -6.9375 C 5.984375 -6.726562 6.101562 -6.554688 6.1875 -6.421875 L 6.28125 -6.421875 L 6.28125 -10.1875 L 7.453125 -10.1875 L 7.453125 0 L 6.328125 0 L 6.328125 -1.171875 L 6.1875 -1.171875 C 6.101562 -1.035156 5.976562 -0.859375 5.8125 -0.640625 C 5.65625 -0.429688 5.425781 -0.242188 5.125 -0.078125 C 4.832031 0.078125 4.441406 0.15625 3.953125 0.15625 Z M 4.109375 -0.890625 C 4.816406 -0.890625 5.359375 -1.160156 5.734375 -1.703125 C 6.109375 -2.242188 6.296875 -2.945312 6.296875 -3.8125 C 6.296875 -4.664062 6.109375 -5.359375 5.734375 -5.890625 C 5.367188 -6.421875 4.828125 -6.6875 4.109375 -6.6875 C 3.617188 -6.6875 3.207031 -6.554688 2.875 -6.296875 C 2.539062 -6.046875 2.289062 -5.703125 2.125 -5.265625 C 1.96875 -4.835938 1.890625 -4.351562 1.890625 -3.8125 C 1.890625 -3.269531 1.972656 -2.773438 2.140625 -2.328125 C 2.304688 -1.890625 2.550781 -1.539062 2.875 -1.28125 C 3.207031 -1.019531 3.617188 -0.890625 4.109375 -0.890625 Z M 4.109375 -0.890625 "/></g></g></g><g fill="#444444" fill-opacity="1"><g transform="translate(295.312681, 64.699993)"><g><path d="M 1.078125 0 L 1.078125 -7.640625 L 2.25 -7.640625 L 2.25 0 Z M 1.671875 -8.90625 C 1.441406 -8.90625 1.242188 -8.984375 1.078125 -9.140625 C 0.910156 -9.296875 0.828125 -9.484375 0.828125 -9.703125 C 0.828125 -9.921875 0.910156 -10.109375 1.078125 -10.265625 C 1.242188 -10.421875 1.441406 -10.5 1.671875 -10.5 C 1.898438 -10.5 2.09375 -10.421875 2.25 -10.265625 C 2.414062 -10.109375 2.5 -9.921875 2.5 -9.703125 C 2.5 -9.484375 2.414062 -9.296875 2.25 -9.140625 C 2.09375 -8.984375 1.898438 -8.90625 1.671875 -8.90625 Z M 1.671875 -8.90625 "/></g></g></g><g fill="#444444" fill-opacity="1"><g transform="translate(298.631891, 64.699993)"><g><path d="M 4.390625 -7.640625 L 4.390625 -6.640625 L 2.765625 -6.640625 L 2.765625 -2.1875 C 2.765625 -1.851562 2.8125 -1.601562 2.90625 -1.4375 C 3.007812 -1.28125 3.132812 -1.171875 3.28125 -1.109375 C 3.4375 -1.054688 3.601562 -1.03125 3.78125 -1.03125 C 3.90625 -1.03125 4.007812 -1.035156 4.09375 -1.046875 C 4.175781 -1.066406 4.242188 -1.082031 4.296875 -1.09375 L 4.53125 -0.046875 C 4.457031 -0.015625 4.347656 0.015625 4.203125 0.046875 C 4.054688 0.078125 3.875 0.09375 3.65625 0.09375 C 3.320312 0.09375 3 0.0234375 2.6875 -0.109375 C 2.375 -0.253906 2.113281 -0.472656 1.90625 -0.765625 C 1.695312 -1.054688 1.59375 -1.425781 1.59375 -1.875 L 1.59375 -6.640625 L 0.4375 -6.640625 L 0.4375 -7.640625 L 1.59375 -7.640625 L 1.59375 -9.46875 L 2.765625 -9.46875 L 2.765625 -7.640625 Z M 4.390625 -7.640625 "/></g></g></g><g fill="#444444" fill-opacity="1"><g transform="translate(303.720026, 64.699993)"><g><path d="M 2.25 -4.59375 L 2.25 0 L 1.078125 0 L 1.078125 -10.1875 L 2.25 -10.1875 L 2.25 -6.4375 L 2.34375 -6.4375 C 2.519531 -6.832031 2.785156 -7.144531 3.140625 -7.375 C 3.503906 -7.613281 3.988281 -7.734375 4.59375 -7.734375 C 5.375 -7.734375 6.003906 -7.5 6.484375 -7.03125 C 6.960938 -6.5625 7.203125 -5.835938 7.203125 -4.859375 L 7.203125 0 L 6.03125 0 L 6.03125 -4.765625 C 6.03125 -5.378906 5.867188 -5.851562 5.546875 -6.1875 C 5.234375 -6.519531 4.800781 -6.6875 4.25 -6.6875 C 3.675781 -6.6875 3.195312 -6.503906 2.8125 -6.140625 C 2.4375 -5.773438 2.25 -5.257812 2.25 -4.59375 Z M 2.25 -4.59375 "/></g></g></g><g fill="#444444" fill-opacity="1"><g transform="translate(311.988244, 64.699993)"><g><path d="M 1.921875 0.078125 C 1.679688 0.078125 1.472656 -0.0078125 1.296875 -0.1875 C 1.117188 -0.363281 1.03125 -0.570312 1.03125 -0.8125 C 1.03125 -1.0625 1.117188 -1.269531 1.296875 -1.4375 C 1.472656 -1.613281 1.679688 -1.703125 1.921875 -1.703125 C 2.171875 -1.703125 2.382812 -1.613281 2.5625 -1.4375 C 2.738281 -1.269531 2.828125 -1.0625 2.828125 -0.8125 C 2.828125 -0.570312 2.738281 -0.363281 2.5625 -0.1875 C 2.382812 -0.0078125 2.171875 0.078125 1.921875 0.078125 Z M 1.921875 0.078125 "/></g></g></g><g fill="#444444" fill-opacity="1"><g transform="translate(315.844102, 64.699993)"><g><path d="M 4.171875 0.15625 C 3.460938 0.15625 2.847656 -0.0078125 2.328125 -0.34375 C 1.804688 -0.6875 1.40625 -1.15625 1.125 -1.75 C 0.851562 -2.34375 0.71875 -3.019531 0.71875 -3.78125 C 0.71875 -4.550781 0.859375 -5.234375 1.140625 -5.828125 C 1.429688 -6.421875 1.832031 -6.882812 2.34375 -7.21875 C 2.863281 -7.5625 3.46875 -7.734375 4.15625 -7.734375 C 4.695312 -7.734375 5.179688 -7.632812 5.609375 -7.4375 C 6.035156 -7.238281 6.382812 -6.957031 6.65625 -6.59375 C 6.9375 -6.238281 7.109375 -5.820312 7.171875 -5.34375 L 6 -5.34375 C 5.914062 -5.695312 5.71875 -6.007812 5.40625 -6.28125 C 5.101562 -6.550781 4.691406 -6.6875 4.171875 -6.6875 C 3.484375 -6.6875 2.929688 -6.421875 2.515625 -5.890625 C 2.097656 -5.367188 1.890625 -4.675781 1.890625 -3.8125 C 1.890625 -2.925781 2.09375 -2.21875 2.5 -1.6875 C 2.914062 -1.15625 3.472656 -0.890625 4.171875 -0.890625 C 4.628906 -0.890625 5.019531 -1.003906 5.34375 -1.234375 C 5.675781 -1.472656 5.894531 -1.804688 6 -2.234375 L 7.171875 -2.234375 C 7.109375 -1.773438 6.945312 -1.363281 6.6875 -1 C 6.425781 -0.644531 6.082031 -0.363281 5.65625 -0.15625 C 5.226562 0.0507812 4.734375 0.15625 4.171875 0.15625 Z M 4.171875 0.15625 "/></g></g></g><g fill="#444444" fill-opacity="1"><g transform="translate(323.655186, 64.699993)"><g><path d="M 4.171875 0.15625 C 3.484375 0.15625 2.878906 -0.00390625 2.359375 -0.328125 C 1.835938 -0.660156 1.429688 -1.117188 1.140625 -1.703125 C 0.859375 -2.296875 0.71875 -2.988281 0.71875 -3.78125 C 0.71875 -4.570312 0.859375 -5.265625 1.140625 -5.859375 C 1.429688 -6.453125 1.835938 -6.910156 2.359375 -7.234375 C 2.878906 -7.566406 3.484375 -7.734375 4.171875 -7.734375 C 4.859375 -7.734375 5.460938 -7.566406 5.984375 -7.234375 C 6.503906 -6.910156 6.910156 -6.453125 7.203125 -5.859375 C 7.492188 -5.265625 7.640625 -4.570312 7.640625 -3.78125 C 7.640625 -2.988281 7.492188 -2.296875 7.203125 -1.703125 C 6.910156 -1.117188 6.503906 -0.660156 5.984375 -0.328125 C 5.460938 -0.00390625 4.859375 0.15625 4.171875 0.15625 Z M 4.171875 -0.890625 C 4.703125 -0.890625 5.132812 -1.023438 5.46875 -1.296875 C 5.800781 -1.566406 6.050781 -1.921875 6.21875 -2.359375 C 6.382812 -2.796875 6.46875 -3.269531 6.46875 -3.78125 C 6.46875 -4.289062 6.382812 -4.765625 6.21875 -5.203125 C 6.050781 -5.640625 5.800781 -5.992188 5.46875 -6.265625 C 5.132812 -6.546875 4.703125 -6.6875 4.171875 -6.6875 C 3.648438 -6.6875 3.21875 -6.546875 2.875 -6.265625 C 2.539062 -5.992188 2.289062 -5.640625 2.125 -5.203125 C 1.96875 -4.765625 1.890625 -4.289062 1.890625 -3.78125 C 1.890625 -3.269531 1.96875 -2.796875 2.125 -2.359375 C 2.289062 -1.921875 2.539062 -1.566406 2.875 -1.296875 C 3.21875 -1.023438 3.648438 -0.890625 4.171875 -0.890625 Z M 4.171875 -0.890625 "/></g></g></g><g fill="#444444" fill-opacity="1"><g transform="translate(332.002907, 64.699993)"><g><path d="M 1.078125 0 L 1.078125 -7.640625 L 2.203125 -7.640625 L 2.203125 -6.4375 L 2.3125 -6.4375 C 2.46875 -6.84375 2.722656 -7.160156 3.078125 -7.390625 C 3.429688 -7.617188 3.859375 -7.734375 4.359375 -7.734375 C 4.859375 -7.734375 5.273438 -7.617188 5.609375 -7.390625 C 5.953125 -7.160156 6.21875 -6.84375 6.40625 -6.4375 L 6.484375 -6.4375 C 6.679688 -6.832031 6.972656 -7.144531 7.359375 -7.375 C 7.753906 -7.613281 8.222656 -7.734375 8.765625 -7.734375 C 9.453125 -7.734375 10.007812 -7.519531 10.4375 -7.09375 C 10.875 -6.664062 11.09375 -6.003906 11.09375 -5.109375 L 11.09375 0 L 9.921875 0 L 9.921875 -5.109375 C 9.921875 -5.671875 9.765625 -6.070312 9.453125 -6.3125 C 9.148438 -6.5625 8.789062 -6.6875 8.375 -6.6875 C 7.832031 -6.6875 7.414062 -6.523438 7.125 -6.203125 C 6.832031 -5.878906 6.6875 -5.46875 6.6875 -4.96875 L 6.6875 0 L 5.484375 0 L 5.484375 -5.234375 C 5.484375 -5.660156 5.34375 -6.007812 5.0625 -6.28125 C 4.78125 -6.550781 4.421875 -6.6875 3.984375 -6.6875 C 3.671875 -6.6875 3.382812 -6.601562 3.125 -6.4375 C 2.863281 -6.269531 2.648438 -6.039062 2.484375 -5.75 C 2.328125 -5.46875 2.25 -5.140625 2.25 -4.765625 L 2.25 0 Z M 1.078125 0 "/></g></g></g><g fill="#444444" fill-opacity="1"><g transform="translate(217.499991, 86.449991)"><g><path d="M 2.796875 0 L 0.484375 -7.640625 L 1.703125 -7.640625 L 3.359375 -1.796875 L 3.4375 -1.796875 L 5.078125 -7.640625 L 6.328125 -7.640625 L 7.9375 -1.8125 L 8.015625 -1.8125 L 9.671875 -7.640625 L 10.890625 -7.640625 L 8.578125 0 L 7.421875 0 L 5.75 -5.859375 L 5.625 -5.859375 L 3.953125 0 Z M 2.796875 0 "/></g></g></g><g fill="#444444" fill-opacity="1"><g transform="translate(228.868792, 86.449991)"><g><path d="M 3.328125 0.171875 C 2.835938 0.171875 2.394531 0.0820312 2 -0.09375 C 1.601562 -0.28125 1.289062 -0.546875 1.0625 -0.890625 C 0.832031 -1.242188 0.71875 -1.671875 0.71875 -2.171875 C 0.71875 -2.609375 0.800781 -2.960938 0.96875 -3.234375 C 1.144531 -3.503906 1.375 -3.71875 1.65625 -3.875 C 1.945312 -4.03125 2.265625 -4.144531 2.609375 -4.21875 C 2.960938 -4.300781 3.316406 -4.367188 3.671875 -4.421875 C 4.140625 -4.472656 4.519531 -4.515625 4.8125 -4.546875 C 5.101562 -4.578125 5.3125 -4.628906 5.4375 -4.703125 C 5.570312 -4.785156 5.640625 -4.921875 5.640625 -5.109375 L 5.640625 -5.15625 C 5.640625 -5.644531 5.503906 -6.023438 5.234375 -6.296875 C 4.972656 -6.566406 4.570312 -6.703125 4.03125 -6.703125 C 3.476562 -6.703125 3.039062 -6.578125 2.71875 -6.328125 C 2.394531 -6.085938 2.171875 -5.828125 2.046875 -5.546875 L 0.9375 -5.953125 C 1.132812 -6.410156 1.398438 -6.769531 1.734375 -7.03125 C 2.066406 -7.289062 2.429688 -7.472656 2.828125 -7.578125 C 3.222656 -7.679688 3.613281 -7.734375 4 -7.734375 C 4.238281 -7.734375 4.519531 -7.703125 4.84375 -7.640625 C 5.164062 -7.585938 5.472656 -7.472656 5.765625 -7.296875 C 6.066406 -7.117188 6.316406 -6.847656 6.515625 -6.484375 C 6.722656 -6.117188 6.828125 -5.632812 6.828125 -5.03125 L 6.828125 0 L 5.640625 0 L 5.640625 -1.03125 L 5.59375 -1.03125 C 5.507812 -0.863281 5.375 -0.6875 5.1875 -0.5 C 5 -0.3125 4.75 -0.148438 4.4375 -0.015625 C 4.132812 0.109375 3.765625 0.171875 3.328125 0.171875 Z M 3.5 -0.875 C 3.96875 -0.875 4.359375 -0.960938 4.671875 -1.140625 C 4.992188 -1.328125 5.234375 -1.5625 5.390625 -1.84375 C 5.554688 -2.132812 5.640625 -2.441406 5.640625 -2.765625 L 5.640625 -3.84375 C 5.597656 -3.78125 5.492188 -3.722656 5.328125 -3.671875 C 5.160156 -3.628906 4.96875 -3.585938 4.75 -3.546875 C 4.53125 -3.515625 4.316406 -3.484375 4.109375 -3.453125 C 3.910156 -3.429688 3.75 -3.414062 3.625 -3.40625 C 3.3125 -3.363281 3.023438 -3.296875 2.765625 -3.203125 C 2.503906 -3.117188 2.289062 -2.988281 2.125 -2.8125 C 1.96875 -2.644531 1.890625 -2.410156 1.890625 -2.109375 C 1.890625 -1.703125 2.039062 -1.394531 2.34375 -1.1875 C 2.644531 -0.976562 3.03125 -0.875 3.5 -0.875 Z M 3.5 -0.875 "/></g></g></g><g fill="#444444" fill-opacity="1"><g transform="translate(236.759378, 86.449991)"><g><path d="M 1.078125 0 L 1.078125 -7.640625 L 2.203125 -7.640625 L 2.203125 -6.484375 L 2.28125 -6.484375 C 2.414062 -6.859375 2.664062 -7.160156 3.03125 -7.390625 C 3.394531 -7.628906 3.8125 -7.75 4.28125 -7.75 C 4.488281 -7.75 4.671875 -7.722656 4.828125 -7.671875 C 4.992188 -7.628906 5.132812 -7.566406 5.25 -7.484375 L 4.859375 -6.484375 C 4.773438 -6.523438 4.675781 -6.554688 4.5625 -6.578125 C 4.445312 -6.609375 4.316406 -6.625 4.171875 -6.625 C 3.617188 -6.625 3.160156 -6.453125 2.796875 -6.109375 C 2.429688 -5.773438 2.25 -5.347656 2.25 -4.828125 L 2.25 0 Z M 1.078125 0 "/></g></g></g><g fill="#444444" fill-opacity="1"><g transform="translate(242.125775, 86.449991)"><g><path d="M 3.953125 0.15625 C 3.316406 0.15625 2.753906 -0.00390625 2.265625 -0.328125 C 1.785156 -0.648438 1.40625 -1.101562 1.125 -1.6875 C 0.851562 -2.28125 0.71875 -2.984375 0.71875 -3.796875 C 0.71875 -4.597656 0.851562 -5.289062 1.125 -5.875 C 1.40625 -6.46875 1.789062 -6.925781 2.28125 -7.25 C 2.769531 -7.570312 3.335938 -7.734375 3.984375 -7.734375 C 4.472656 -7.734375 4.863281 -7.648438 5.15625 -7.484375 C 5.445312 -7.328125 5.671875 -7.144531 5.828125 -6.9375 C 5.984375 -6.726562 6.101562 -6.554688 6.1875 -6.421875 L 6.28125 -6.421875 L 6.28125 -10.1875 L 7.453125 -10.1875 L 7.453125 0 L 6.328125 0 L 6.328125 -1.171875 L 6.1875 -1.171875 C 6.101562 -1.035156 5.976562 -0.859375 5.8125 -0.640625 C 5.65625 -0.429688 5.425781 -0.242188 5.125 -0.078125 C 4.832031 0.078125 4.441406 0.15625 3.953125 0.15625 Z M 4.109375 -0.890625 C 4.816406 -0.890625 5.359375 -1.160156 5.734375 -1.703125 C 6.109375 -2.242188 6.296875 -2.945312 6.296875 -3.8125 C 6.296875 -4.664062 6.109375 -5.359375 5.734375 -5.890625 C 5.367188 -6.421875 4.828125 -6.6875 4.109375 -6.6875 C 3.617188 -6.6875 3.207031 -6.554688 2.875 -6.296875 C 2.539062 -6.046875 2.289062 -5.703125 2.125 -5.265625 C 1.96875 -4.835938 1.890625 -4.351562 1.890625 -3.8125 C 1.890625 -3.269531 1.972656 -2.773438 2.140625 -2.328125 C 2.304688 -1.890625 2.550781 -1.539062 2.875 -1.28125 C 3.207031 -1.019531 3.617188 -0.890625 4.109375 -0.890625 Z M 4.109375 -0.890625 "/></g></g></g><g fill="#444444" fill-opacity="1"><g transform="translate(250.811383, 86.449991)"><g><path d="M 1.078125 0 L 1.078125 -7.640625 L 2.25 -7.640625 L 2.25 0 Z M 1.671875 -8.90625 C 1.441406 -8.90625 1.242188 -8.984375 1.078125 -9.140625 C 0.910156 -9.296875 0.828125 -9.484375 0.828125 -9.703125 C 0.828125 -9.921875 0.910156 -10.109375 1.078125 -10.265625 C 1.242188 -10.421875 1.441406 -10.5 1.671875 -10.5 C 1.898438 -10.5 2.09375 -10.421875 2.25 -10.265625 C 2.414062 -10.109375 2.5 -9.921875 2.5 -9.703125 C 2.5 -9.484375 2.414062 -9.296875 2.25 -9.140625 C 2.09375 -8.984375 1.898438 -8.90625 1.671875 -8.90625 Z M 1.671875 -8.90625 "/></g></g></g><g fill="#444444" fill-opacity="1"><g transform="translate(254.130593, 86.449991)"><g><path d="M 4.390625 -7.640625 L 4.390625 -6.640625 L 2.765625 -6.640625 L 2.765625 -2.1875 C 2.765625 -1.851562 2.8125 -1.601562 2.90625 -1.4375 C 3.007812 -1.28125 3.132812 -1.171875 3.28125 -1.109375 C 3.4375 -1.054688 3.601562 -1.03125 3.78125 -1.03125 C 3.90625 -1.03125 4.007812 -1.035156 4.09375 -1.046875 C 4.175781 -1.066406 4.242188 -1.082031 4.296875 -1.09375 L 4.53125 -0.046875 C 4.457031 -0.015625 4.347656 0.015625 4.203125 0.046875 C 4.054688 0.078125 3.875 0.09375 3.65625 0.09375 C 3.320312 0.09375 3 0.0234375 2.6875 -0.109375 C 2.375 -0.253906 2.113281 -0.472656 1.90625 -0.765625 C 1.695312 -1.054688 1.59375 -1.425781 1.59375 -1.875 L 1.59375 -6.640625 L 0.4375 -6.640625 L 0.4375 -7.640625 L 1.59375 -7.640625 L 1.59375 -9.46875 L 2.765625 -9.46875 L 2.765625 -7.640625 Z M 4.390625 -7.640625 "/></g></g></g><g fill="#444444" fill-opacity="1"><g transform="translate(259.218727, 86.449991)"><g><path d="M 2.25 -4.59375 L 2.25 0 L 1.078125 0 L 1.078125 -10.1875 L 2.25 -10.1875 L 2.25 -6.4375 L 2.34375 -6.4375 C 2.519531 -6.832031 2.785156 -7.144531 3.140625 -7.375 C 3.503906 -7.613281 3.988281 -7.734375 4.59375 -7.734375 C 5.375 -7.734375 6.003906 -7.5 6.484375 -7.03125 C 6.960938 -6.5625 7.203125 -5.835938 7.203125 -4.859375 L 7.203125 0 L 6.03125 0 L 6.03125 -4.765625 C 6.03125 -5.378906 5.867188 -5.851562 5.546875 -6.1875 C 5.234375 -6.519531 4.800781 -6.6875 4.25 -6.6875 C 3.675781 -6.6875 3.195312 -6.503906 2.8125 -6.140625 C 2.4375 -5.773438 2.25 -5.257812 2.25 -4.59375 Z M 2.25 -4.59375 "/></g></g></g><g fill="#444444" fill-opacity="1"><g transform="translate(267.486946, 86.449991)"><g><path d="M 1.921875 0.078125 C 1.679688 0.078125 1.472656 -0.0078125 1.296875 -0.1875 C 1.117188 -0.363281 1.03125 -0.570312 1.03125 -0.8125 C 1.03125 -1.0625 1.117188 -1.269531 1.296875 -1.4375 C 1.472656 -1.613281 1.679688 -1.703125 1.921875 -1.703125 C 2.171875 -1.703125 2.382812 -1.613281 2.5625 -1.4375 C 2.738281 -1.269531 2.828125 -1.0625 2.828125 -0.8125 C 2.828125 -0.570312 2.738281 -0.363281 2.5625 -0.1875 C 2.382812 -0.0078125 2.171875 0.078125 1.921875 0.078125 Z M 1.921875 0.078125 "/></g></g></g><g fill="#444444" fill-opacity="1"><g transform="translate(271.342803, 86.449991)"><g><path d="M 4.171875 0.15625 C 3.460938 0.15625 2.847656 -0.0078125 2.328125 -0.34375 C 1.804688 -0.6875 1.40625 -1.15625 1.125 -1.75 C 0.851562 -2.34375 0.71875 -3.019531 0.71875 -3.78125 C 0.71875 -4.550781 0.859375 -5.234375 1.140625 -5.828125 C 1.429688 -6.421875 1.832031 -6.882812 2.34375 -7.21875 C 2.863281 -7.5625 3.46875 -7.734375 4.15625 -7.734375 C 4.695312 -7.734375 5.179688 -7.632812 5.609375 -7.4375 C 6.035156 -7.238281 6.382812 -6.957031 6.65625 -6.59375 C 6.9375 -6.238281 7.109375 -5.820312 7.171875 -5.34375 L 6 -5.34375 C 5.914062 -5.695312 5.71875 -6.007812 5.40625 -6.28125 C 5.101562 -6.550781 4.691406 -6.6875 4.171875 -6.6875 C 3.484375 -6.6875 2.929688 -6.421875 2.515625 -5.890625 C 2.097656 -5.367188 1.890625 -4.675781 1.890625 -3.8125 C 1.890625 -2.925781 2.09375 -2.21875 2.5 -1.6875 C 2.914062 -1.15625 3.472656 -0.890625 4.171875 -0.890625 C 4.628906 -0.890625 5.019531 -1.003906 5.34375 -1.234375 C 5.675781 -1.472656 5.894531 -1.804688 6 -2.234375 L 7.171875 -2.234375 C 7.109375 -1.773438 6.945312 -1.363281 6.6875 -1 C 6.425781 -0.644531 6.082031 -0.363281 5.65625 -0.15625 C 5.226562 0.0507812 4.734375 0.15625 4.171875 0.15625 Z M 4.171875 0.15625 "/></g></g></g><g fill="#444444" fill-opacity="1"><g transform="translate(279.153888, 86.449991)"><g><path d="M 4.171875 0.15625 C 3.484375 0.15625 2.878906 -0.00390625 2.359375 -0.328125 C 1.835938 -0.660156 1.429688 -1.117188 1.140625 -1.703125 C 0.859375 -2.296875 0.71875 -2.988281 0.71875 -3.78125 C 0.71875 -4.570312 0.859375 -5.265625 1.140625 -5.859375 C 1.429688 -6.453125 1.835938 -6.910156 2.359375 -7.234375 C 2.878906 -7.566406 3.484375 -7.734375 4.171875 -7.734375 C 4.859375 -7.734375 5.460938 -7.566406 5.984375 -7.234375 C 6.503906 -6.910156 6.910156 -6.453125 7.203125 -5.859375 C 7.492188 -5.265625 7.640625 -4.570312 7.640625 -3.78125 C 7.640625 -2.988281 7.492188 -2.296875 7.203125 -1.703125 C 6.910156 -1.117188 6.503906 -0.660156 5.984375 -0.328125 C 5.460938 -0.00390625 4.859375 0.15625 4.171875 0.15625 Z M 4.171875 -0.890625 C 4.703125 -0.890625 5.132812 -1.023438 5.46875 -1.296875 C 5.800781 -1.566406 6.050781 -1.921875 6.21875 -2.359375 C 6.382812 -2.796875 6.46875 -3.269531 6.46875 -3.78125 C 6.46875 -4.289062 6.382812 -4.765625 6.21875 -5.203125 C 6.050781 -5.640625 5.800781 -5.992188 5.46875 -6.265625 C 5.132812 -6.546875 4.703125 -6.6875 4.171875 -6.6875 C 3.648438 -6.6875 3.21875 -6.546875 2.875 -6.265625 C 2.539062 -5.992188 2.289062 -5.640625 2.125 -5.203125 C 1.96875 -4.765625 1.890625 -4.289062 1.890625 -3.78125 C 1.890625 -3.269531 1.96875 -2.796875 2.125 -2.359375 C 2.289062 -1.921875 2.539062 -1.566406 2.875 -1.296875 C 3.21875 -1.023438 3.648438 -0.890625 4.171875 -0.890625 Z M 4.171875 -0.890625 "/></g></g></g><g fill="#444444" fill-opacity="1"><g transform="translate(287.501608, 86.449991)"><g><path d="M 1.921875 0.078125 C 1.679688 0.078125 1.472656 -0.0078125 1.296875 -0.1875 C 1.117188 -0.363281 1.03125 -0.570312 1.03125 -0.8125 C 1.03125 -1.0625 1.117188 -1.269531 1.296875 -1.4375 C 1.472656 -1.613281 1.679688 -1.703125 1.921875 -1.703125 C 2.171875 -1.703125 2.382812 -1.613281 2.5625 -1.4375 C 2.738281 -1.269531 2.828125 -1.0625 2.828125 -0.8125 C 2.828125 -0.570312 2.738281 -0.363281 2.5625 -0.1875 C 2.382812 -0.0078125 2.171875 0.078125 1.921875 0.078125 Z M 1.921875 0.078125 "/></g></g></g><g fill="#444444" fill-opacity="1"><g transform="translate(291.357466, 86.449991)"><g><path d="M 5.890625 -3.125 L 5.890625 -7.640625 L 7.0625 -7.640625 L 7.0625 0 L 5.890625 0 L 5.890625 -1.296875 L 5.8125 -1.296875 C 5.625 -0.898438 5.34375 -0.566406 4.96875 -0.296875 C 4.59375 -0.0351562 4.117188 0.09375 3.546875 0.09375 C 2.828125 0.09375 2.234375 -0.140625 1.765625 -0.609375 C 1.304688 -1.085938 1.078125 -1.8125 1.078125 -2.78125 L 1.078125 -7.640625 L 2.25 -7.640625 L 2.25 -2.859375 C 2.25 -2.304688 2.40625 -1.863281 2.71875 -1.53125 C 3.03125 -1.195312 3.429688 -1.03125 3.921875 -1.03125 C 4.210938 -1.03125 4.507812 -1.101562 4.8125 -1.25 C 5.113281 -1.40625 5.367188 -1.632812 5.578125 -1.9375 C 5.785156 -2.25 5.890625 -2.644531 5.890625 -3.125 Z M 5.890625 -3.125 "/></g></g></g><g fill="#444444" fill-opacity="1"><g transform="translate(299.486559, 86.449991)"><g><path d="M 1.078125 0 L 1.078125 -10.1875 L 2.25 -10.1875 L 2.25 -4.234375 L 2.390625 -4.234375 L 5.734375 -7.640625 L 7.171875 -7.640625 L 3.953125 -4.375 L 7.421875 0 L 5.921875 0 L 3.0625 -3.625 L 2.25 -2.859375 L 2.25 0 Z M 1.078125 0 "/></g></g></g><g transform="matrix(1, 0, 0, 1, 12, 32)"><g clip-path="url(#0a90f9a985)"><g fill="#170969" fill-opacity="1"><g transform="translate(0.0937463, 61.604229)"><g><path d="M 7.046875 0 L 0.59375 -31.484375 L 8.234375 -31.484375 L 12.859375 -6.03125 L 19.15625 -31.484375 L 26.109375 -31.484375 L 32.40625 -6.03125 L 37.03125 -31.484375 L 44.671875 -31.484375 L 38.21875 0 L 27.34375 0 L 22.65625 -18.515625 L 17.921875 0 Z M 7.046875 0 "/></g></g></g><g fill="#170969" fill-opacity="1"><g transform="translate(40.357931, 61.604229)"><g><path d="M 9.46875 0.328125 C 7.320312 0.328125 5.445312 -0.265625 3.84375 -1.453125 C 2.25 -2.640625 1.453125 -4.363281 1.453125 -6.625 C 1.453125 -8.238281 1.972656 -9.59375 3.015625 -10.6875 C 4.054688 -11.78125 5.507812 -12.554688 7.375 -13.015625 C 9.238281 -13.484375 11.003906 -13.796875 12.671875 -13.953125 C 14.335938 -14.117188 16.269531 -14.203125 18.46875 -14.203125 C 18.46875 -15.679688 18.070312 -16.710938 17.28125 -17.296875 C 16.488281 -17.890625 15.375 -18.1875 13.9375 -18.1875 C 11 -18.1875 9.472656 -17.414062 9.359375 -15.875 L 2.796875 -15.875 C 3.585938 -20.90625 7.195312 -23.421875 13.625 -23.421875 C 18.03125 -23.421875 21.148438 -22.539062 22.984375 -20.78125 C 24.816406 -19.019531 25.734375 -16.273438 25.734375 -12.546875 L 25.734375 0 L 18.953125 0 L 18.46875 -2.53125 C 16.957031 -0.625 13.957031 0.328125 9.46875 0.328125 Z M 13.34375 -4.890625 C 13.957031 -4.890625 14.800781 -5.066406 15.875 -5.421875 C 16.957031 -5.785156 17.820312 -6.238281 18.46875 -6.78125 L 18.46875 -9.796875 C 16.09375 -9.796875 13.863281 -9.570312 11.78125 -9.125 C 9.707031 -8.675781 8.671875 -7.929688 8.671875 -6.890625 C 8.671875 -5.554688 10.226562 -4.890625 13.34375 -4.890625 Z M 13.34375 -4.890625 "/></g></g></g><g fill="#170969" fill-opacity="1"><g transform="translate(65.173157, 61.604229)"><g><path d="M 2.75 0 L 2.75 -22.875 L 9.90625 -22.875 L 10.234375 -20.5625 C 11.335938 -22.46875 13.8125 -23.421875 17.65625 -23.421875 C 18.875 -23.421875 19.828125 -23.273438 20.515625 -22.984375 L 20.515625 -17.5 C 19.359375 -17.78125 18.316406 -17.921875 17.390625 -17.921875 C 15.484375 -17.921875 13.773438 -17.414062 12.265625 -16.40625 C 10.765625 -15.40625 10.015625 -14.117188 10.015625 -12.546875 L 10.015625 0 Z M 2.75 0 "/></g></g></g><g fill="#170969" fill-opacity="1"><g transform="translate(82.882929, 61.604229)"><g><path d="M 11.515625 0.328125 C 8.648438 0.328125 6.289062 -0.835938 4.4375 -3.171875 C 2.59375 -5.503906 1.671875 -8.320312 1.671875 -11.625 C 1.671875 -15.21875 2.617188 -18.082031 4.515625 -20.21875 C 6.421875 -22.351562 9.113281 -23.421875 12.59375 -23.421875 C 16.070312 -23.421875 18.726562 -22.503906 20.5625 -20.671875 L 20.5625 -31.484375 L 27.828125 -31.484375 L 27.828125 0 L 21 0 L 20.5625 -2.640625 C 18.65625 -0.660156 15.640625 0.328125 11.515625 0.328125 Z M 14.3125 -4.890625 C 16 -4.890625 17.460938 -5.363281 18.703125 -6.3125 C 19.941406 -7.269531 20.5625 -8.445312 20.5625 -9.84375 L 20.5625 -13.453125 C 20.5625 -14.816406 19.976562 -15.945312 18.8125 -16.84375 C 17.644531 -17.738281 16.304688 -18.1875 14.796875 -18.1875 C 13.078125 -18.1875 11.671875 -17.710938 10.578125 -16.765625 C 9.484375 -15.816406 8.9375 -14.300781 8.9375 -12.21875 L 8.9375 -11.625 C 8.9375 -9.65625 9.457031 -8.039062 10.5 -6.78125 C 11.539062 -5.519531 12.8125 -4.890625 14.3125 -4.890625 Z M 14.3125 -4.890625 "/></g></g></g><g fill="#170969" fill-opacity="1"><g transform="translate(110.604925, 61.604229)"><g><path d="M 2.859375 -24.546875 L 2.859375 -31.484375 L 9.953125 -31.484375 L 9.953125 -24.546875 Z M 2.75 0 L 2.75 -22.875 L 10.015625 -22.875 L 10.015625 0 Z M 2.75 0 "/></g></g></g><g fill="#170969" fill-opacity="1"><g transform="translate(120.509465, 61.604229)"><g><path d="M 13.40625 0.328125 C 10.601562 0.328125 8.582031 -0.488281 7.34375 -2.125 C 6.101562 -3.757812 5.484375 -6.242188 5.484375 -9.578125 L 5.484375 -17.390625 L 1.125 -17.390625 L 1.125 -22.875 L 5.484375 -22.875 L 5.484375 -29.71875 L 12.8125 -31.65625 L 12.8125 -22.875 L 18.578125 -22.875 L 18.578125 -17.390625 L 12.8125 -17.390625 L 12.8125 -8.9375 C 12.8125 -6.457031 14.175781 -5.21875 16.90625 -5.21875 C 17.226562 -5.21875 17.785156 -5.253906 18.578125 -5.328125 L 18.578125 -0.21875 C 17.566406 0.03125 15.84375 0.210938 13.40625 0.328125 Z M 13.40625 0.328125 "/></g></g></g><g fill="#170969" fill-opacity="1"><g transform="translate(138.165409, 61.604229)"><g><path d="M 2.75 0 L 2.75 -31.484375 L 10.015625 -31.484375 L 10.015625 -20.71875 C 11.734375 -22.519531 14.28125 -23.421875 17.65625 -23.421875 C 20.8125 -23.421875 23.269531 -22.53125 25.03125 -20.75 C 26.789062 -18.976562 27.671875 -16.472656 27.671875 -13.234375 L 27.671875 0 L 20.40625 0 L 20.40625 -12.4375 C 20.40625 -14.550781 19.988281 -16.035156 19.15625 -16.890625 C 18.332031 -17.753906 17.113281 -18.1875 15.5 -18.1875 C 14.175781 -18.1875 12.929688 -17.664062 11.765625 -16.625 C 10.597656 -15.59375 10.015625 -14.394531 10.015625 -13.03125 L 10.015625 0 Z M 2.75 0 "/></g></g></g><g fill="#170969" fill-opacity="1"><g transform="translate(165.187618, 61.604229)"><g><path d="M 3.015625 0 L 3.015625 -6.9375 L 10.125 -6.9375 L 10.125 0 Z M 3.015625 0 "/></g></g></g></g></g></svg>